<?xml version="1.0" encoding="utf-8"?>
<!-- Generator: Adobe Illustrator 14.0.0, SVG Export Plug-In . SVG Version: 6.00 Build 43363)  -->
<!DOCTYPE svg PUBLIC "-//W3C//DTD SVG 1.1//EN" "http://www.w3.org/Graphics/SVG/1.1/DTD/svg11.dtd">
<svg version="1.1" id="Layer_1" xmlns="http://www.w3.org/2000/svg" xmlns:xlink="http://www.w3.org/1999/xlink" x="0px" y="0px"
	 width="612px" height="792px" viewBox="0 0 612 792" enable-background="new 0 0 612 792" xml:space="preserve">
<g>
	<polygon fill-rule="evenodd" clip-rule="evenodd" fill="#FFFFFF" points="209,300 401.756,300 401.756,492.756 209,492.756 
		209,300 	"/>
	<path fill-rule="evenodd" clip-rule="evenodd" d="M365.588,449.965c0,0,0,0.117,0-23.332h-9.628c0,23.449,0,23.332,0,23.332
		H365.588L365.588,449.965z"/>
	<path fill-rule="evenodd" clip-rule="evenodd" d="M314.611,440.277v-13.291h-9.333v10.16c0,2.953-0.118,3.779-0.295,4.549
		c-0.649,2.127-2.895,3.07-5.198,3.07c-3.189,0-4.666-1.24-5.257-3.189c-0.177-0.65-0.236-1.357-0.295-2.066
		c-0.059-0.768,0-1.596,0-2.482v-10.041h-9.451v13.35c0,3.014,1.004,5.258,2.658,6.793c2.835,2.777,7.62,3.604,12.05,3.604
		c5.375,0,9.51-0.768,12.463-3.662C313.489,445.594,314.611,443.645,314.611,440.277L314.611,440.277z"/>
	<path fill-rule="evenodd" clip-rule="evenodd" d="M268.774,438.623c-0.295-0.059-0.827-0.117-1.417-0.117h-10.632
		c-0.532,0-1.123,0.059-1.418,0.117c0.177-0.178,0.532-0.531,0.886-1.004l4.784-7.916c0.65-1.063,0.945-1.771,1.063-2.066
		c0.118,0.295,0.413,1.004,1.063,2.125l4.903,7.975C268.243,438.092,268.597,438.445,268.774,438.623L268.774,438.623z
		 M286.613,449.965l-21.265-31.898h-11.932l3.13,3.723c0.06,0.059,0.178,0.117,0.295,0.176c-0.118,0.061-0.236,0.119-0.295,0.178
		L238,449.965h10.75l2.895-4.785c0.118-0.236,0.177-0.473,0.177-0.59c0.118,0,0.414,0.117,0.709,0.117h19.197
		c0.295,0,0.531-0.059,0.649-0.117c0,0.117,0,0.295,0.118,0.471l3.013,4.904H286.613L286.613,449.965z"/>
	<path fill-rule="evenodd" clip-rule="evenodd" d="M353.361,437.973c0-2.598-1.063-5.611-4.371-9.805l-7.975-10.102h-11.104
		l6.319,7.088c1.063,1.182,2.422,2.246,2.422,2.246c-1.536-0.887-3.484-1.24-5.021-1.24c-3.662,0-7.384,0.768-10.691,2.6
		c-3.544,1.947-5.907,5.197-5.907,9.51c0,3.307,1.477,5.848,3.367,7.797c4.253,4.252,11.991,4.666,14.826,4.666
		c4.194,0,10.751-0.945,14.473-4.313C351.884,444.412,353.361,441.635,353.361,437.973L353.361,437.973z M344.146,438.27
		c0,2.422-1.596,4.252-3.604,5.256c-1.653,0.887-3.604,1.123-5.316,1.123s-3.722-0.355-5.375-1.182
		c-2.009-1.004-3.544-2.953-3.544-5.08c0-2.541,1.949-4.549,4.253-5.553c1.417-0.65,3.131-0.885,4.489-0.885
		c1.299,0,3.189,0.176,4.666,0.768C342.374,433.838,344.146,435.965,344.146,438.27L344.146,438.27z"/>
	<path fill-rule="evenodd" clip-rule="evenodd" d="M362.528,342.023c-7.198,0-13.81,2.473-19.05,6.619
		c-5.238-4.146-11.852-6.619-19.051-6.619c-7.196,0-13.813,2.474-19.05,6.619c-5.237-4.146-11.851-6.619-19.05-6.619
		c-7.196,0-13.813,2.474-19.05,6.619c-5.24-4.146-11.852-6.619-19.05-6.619c-16.971,0-30.724,13.752-30.724,30.723
		c0,16.97,13.752,30.724,30.724,30.724c7.198,0,13.813-2.475,19.05-6.619c5.237,4.145,11.854,6.619,19.05,6.619
		c7.199,0,13.813-2.473,19.05-6.619c5.237,4.145,11.854,6.619,19.05,6.619c7.199,0,13.813-2.473,19.051-6.619
		c5.237,4.145,11.852,6.619,19.05,6.619c16.971,0,30.724-13.754,30.724-30.724C393.252,355.776,379.499,342.023,362.528,342.023
		L362.528,342.023z M262.25,391.832c-3.915,2.856-8.806,4.6-14.023,4.6c-13.092,0-23.686-10.594-23.686-23.686
		c0-13.092,10.594-23.686,23.686-23.686c5.217,0,10.104,1.744,14.023,4.6c-4.167,5.244-6.646,11.867-6.646,19.085
		C255.604,379.937,258.113,386.597,262.25,391.832L262.25,391.832z M267.277,386.819c-2.916-3.938-4.635-8.797-4.635-14.073
		c0-5.282,1.714-10.132,4.635-14.073c2.921,3.94,4.636,8.791,4.636,14.073C271.913,378.022,270.193,382.881,267.277,386.819
		L267.277,386.819z M300.352,391.832c-3.931,2.894-8.786,4.593-14.04,4.593c-5.253,0-10.078-1.701-14.007-4.593
		c4.138-5.235,6.646-11.895,6.646-19.085c0-7.219-2.479-13.841-6.646-19.085c3.929-2.892,8.754-4.593,14.007-4.593
		c5.254,0,10.109,1.699,14.04,4.593c-4.167,5.244-6.646,11.867-6.646,19.085C293.705,379.937,296.213,386.597,300.352,391.832
		L300.352,391.832z M305.378,386.819c-2.916-3.938-4.635-8.797-4.635-14.073c0-5.282,1.714-10.132,4.635-14.073
		c2.921,3.94,4.636,8.791,4.636,14.073C310.014,378.022,308.294,382.881,305.378,386.819L305.378,386.819z M338.451,391.832
		c-3.93,2.894-8.785,4.593-14.039,4.593s-10.078-1.701-14.008-4.593c4.138-5.235,6.646-11.895,6.646-19.085
		c0-7.219-2.479-13.841-6.646-19.085c3.93-2.892,8.754-4.593,14.008-4.593s10.109,1.699,14.039,4.593
		c-4.167,5.244-6.646,11.867-6.646,19.085C331.805,379.937,334.313,386.597,338.451,391.832L338.451,391.832z M343.479,386.819
		c-2.916-3.938-4.635-8.797-4.635-14.073c0-5.282,1.714-10.132,4.635-14.073c2.921,3.94,4.635,8.791,4.635,14.073
		C348.113,378.022,346.395,382.881,343.479,386.819L343.479,386.819z M362.528,396.432c-5.218,0-10.108-1.744-14.023-4.6
		c4.138-5.235,6.646-11.895,6.646-19.085c0-7.219-2.479-13.841-6.646-19.085c3.919-2.856,8.806-4.6,14.023-4.6
		c13.092,0,23.686,10.594,23.686,23.686C386.214,385.838,375.62,396.432,362.528,396.432L362.528,396.432z"/>
</g>
</svg>
