<?xml version="1.0" encoding="utf-8"?>
<!-- Generator: Adobe Illustrator 14.0.0, SVG Export Plug-In . SVG Version: 6.00 Build 43363)  -->
<!DOCTYPE svg PUBLIC "-//W3C//DTD SVG 1.1//EN" "http://www.w3.org/Graphics/SVG/1.1/DTD/svg11.dtd">
<svg version="1.1" id="Layer_1" xmlns="http://www.w3.org/2000/svg" xmlns:xlink="http://www.w3.org/1999/xlink" x="0px" y="0px"
	 width="612px" height="792px" viewBox="0 0 612 792" enable-background="new 0 0 612 792" xml:space="preserve">
<g>
	<polygon fill-rule="evenodd" clip-rule="evenodd" fill="#FFFFFF" points="209,300 401.756,300 401.756,492.756 209,492.756 
		209,300 	"/>
	<polygon fill-rule="evenodd" clip-rule="evenodd" points="231.508,360.045 387.81,360.045 379.248,387.061 357.642,387.061 
		343.176,432.711 308.354,432.711 322.82,387.061 281.186,387.061 266.72,432.711 231.879,432.711 246.345,387.061 222.947,387.061 
		231.508,360.045 	"/>
	<path fill-rule="evenodd" clip-rule="evenodd" fill="#E6E7E8" d="M233.882,363.269h73.028l-6.518,20.568h-21.581l-14.466,45.65
		h-28.049l14.466-45.65h-23.398L233.882,363.269L233.882,363.269z M310.307,363.269h73.084l-6.519,20.568h-21.605l-14.467,45.65
		h-28.027l14.467-45.65h-23.451L310.307,363.269L310.307,363.269z"/>
</g>
</svg>
